<mxfile host="app.diagrams.net" modified="2020-10-12T12:21:27.485Z" agent="5.0 (X11; Linux x86_64) AppleWebKit/537.36 (KHTML, like Gecko) Chrome/85.0.4183.121 Safari/537.36" etag="tvAFrJfVGBbhWIlYLVaB" version="13.7.9" type="github">
  <diagram id="_5QMkp_ZpDh5lMbEbbph" name="Personal Form Page">
    <mxGraphModel dx="1038" dy="609" grid="1" gridSize="10" guides="1" tooltips="1" connect="1" arrows="1" fold="1" page="1" pageScale="1" pageWidth="827" pageHeight="1169" math="0" shadow="0">
      <root>
        <mxCell id="0" />
        <mxCell id="1" parent="0" />
        <mxCell id="dHvcwWORWN_SWeiu5R4C-1" value="" style="rounded=0;whiteSpace=wrap;html=1;" vertex="1" parent="1">
          <mxGeometry x="40" y="90" width="750" height="380" as="geometry" />
        </mxCell>
        <mxCell id="dHvcwWORWN_SWeiu5R4C-2" value="" style="endArrow=none;html=1;exitX=1.006;exitY=0.111;exitDx=0;exitDy=0;exitPerimeter=0;entryX=-0.004;entryY=0.115;entryDx=0;entryDy=0;entryPerimeter=0;" edge="1" parent="1" source="dHvcwWORWN_SWeiu5R4C-1" target="dHvcwWORWN_SWeiu5R4C-1">
          <mxGeometry width="50" height="50" relative="1" as="geometry">
            <mxPoint x="390" y="340" as="sourcePoint" />
            <mxPoint x="440" y="290" as="targetPoint" />
          </mxGeometry>
        </mxCell>
        <mxCell id="dHvcwWORWN_SWeiu5R4C-3" value="Identity" style="text;html=1;strokeColor=none;fillColor=none;align=center;verticalAlign=middle;whiteSpace=wrap;rounded=0;" vertex="1" parent="1">
          <mxGeometry x="50" y="100" width="40" height="20" as="geometry" />
        </mxCell>
        <mxCell id="dHvcwWORWN_SWeiu5R4C-4" value="Home" style="text;html=1;strokeColor=none;fillColor=none;align=center;verticalAlign=middle;whiteSpace=wrap;rounded=0;" vertex="1" parent="1">
          <mxGeometry x="190" y="100" width="40" height="20" as="geometry" />
        </mxCell>
        <mxCell id="dHvcwWORWN_SWeiu5R4C-5" value="Preview Form" style="text;html=1;strokeColor=none;fillColor=none;align=center;verticalAlign=middle;whiteSpace=wrap;rounded=0;" vertex="1" parent="1">
          <mxGeometry x="250" y="100" width="80" height="20" as="geometry" />
        </mxCell>
        <mxCell id="dHvcwWORWN_SWeiu5R4C-6" value="Logout" style="text;html=1;strokeColor=none;fillColor=none;align=center;verticalAlign=middle;whiteSpace=wrap;rounded=0;" vertex="1" parent="1">
          <mxGeometry x="720" y="100" width="40" height="20" as="geometry" />
        </mxCell>
        <mxCell id="dHvcwWORWN_SWeiu5R4C-7" value="" style="endArrow=none;html=1;entryX=1.002;entryY=0.188;entryDx=0;entryDy=0;exitX=-0.004;exitY=0.191;exitDx=0;exitDy=0;entryPerimeter=0;exitPerimeter=0;" edge="1" parent="1" source="dHvcwWORWN_SWeiu5R4C-1" target="dHvcwWORWN_SWeiu5R4C-1">
          <mxGeometry width="50" height="50" relative="1" as="geometry">
            <mxPoint x="390" y="330" as="sourcePoint" />
            <mxPoint x="440" y="280" as="targetPoint" />
          </mxGeometry>
        </mxCell>
        <mxCell id="dHvcwWORWN_SWeiu5R4C-8" value="Personal" style="rounded=0;whiteSpace=wrap;html=1;fillColor=#dae8fc;strokeColor=#6c8ebf;" vertex="1" parent="1">
          <mxGeometry x="41" y="134" width="99" height="30" as="geometry" />
        </mxCell>
        <mxCell id="dHvcwWORWN_SWeiu5R4C-11" value="" style="rounded=0;whiteSpace=wrap;html=1;" vertex="1" parent="1">
          <mxGeometry x="141" y="134" width="99" height="30" as="geometry" />
        </mxCell>
        <mxCell id="dHvcwWORWN_SWeiu5R4C-12" value="Professional" style="rounded=0;whiteSpace=wrap;html=1;" vertex="1" parent="1">
          <mxGeometry x="239" y="134" width="99" height="30" as="geometry" />
        </mxCell>
        <mxCell id="dHvcwWORWN_SWeiu5R4C-13" value="Excise" style="rounded=0;whiteSpace=wrap;html=1;" vertex="1" parent="1">
          <mxGeometry x="338" y="134" width="99" height="30" as="geometry" />
        </mxCell>
        <mxCell id="dHvcwWORWN_SWeiu5R4C-14" value="Resident" style="rounded=0;whiteSpace=wrap;html=1;" vertex="1" parent="1">
          <mxGeometry x="437" y="134" width="99" height="30" as="geometry" />
        </mxCell>
        <mxCell id="dHvcwWORWN_SWeiu5R4C-15" value="Preview" style="rounded=0;whiteSpace=wrap;html=1;" vertex="1" parent="1">
          <mxGeometry x="537" y="133" width="99" height="30" as="geometry" />
        </mxCell>
        <mxCell id="dHvcwWORWN_SWeiu5R4C-16" value="Education" style="text;html=1;strokeColor=none;fillColor=none;align=center;verticalAlign=middle;whiteSpace=wrap;rounded=0;" vertex="1" parent="1">
          <mxGeometry x="170.5" y="139" width="40" height="20" as="geometry" />
        </mxCell>
        <mxCell id="dHvcwWORWN_SWeiu5R4C-17" value="" style="whiteSpace=wrap;html=1;" vertex="1" parent="1">
          <mxGeometry x="135" y="190" width="501" height="221" as="geometry" />
        </mxCell>
        <mxCell id="dHvcwWORWN_SWeiu5R4C-18" value="First Name" style="text;html=1;strokeColor=none;fillColor=none;align=left;verticalAlign=middle;whiteSpace=wrap;rounded=0;" vertex="1" parent="1">
          <mxGeometry x="201" y="220" width="90" height="20" as="geometry" />
        </mxCell>
        <mxCell id="dHvcwWORWN_SWeiu5R4C-19" value="Middle Name" style="text;html=1;strokeColor=none;fillColor=none;align=left;verticalAlign=middle;whiteSpace=wrap;rounded=0;" vertex="1" parent="1">
          <mxGeometry x="200" y="250" width="80" height="20" as="geometry" />
        </mxCell>
        <mxCell id="dHvcwWORWN_SWeiu5R4C-20" value="Last Name" style="text;html=1;strokeColor=none;fillColor=none;align=left;verticalAlign=middle;whiteSpace=wrap;rounded=0;" vertex="1" parent="1">
          <mxGeometry x="200" y="276" width="70" height="20" as="geometry" />
        </mxCell>
        <mxCell id="dHvcwWORWN_SWeiu5R4C-21" value="Age" style="text;html=1;strokeColor=none;fillColor=none;align=left;verticalAlign=middle;whiteSpace=wrap;rounded=0;" vertex="1" parent="1">
          <mxGeometry x="199" y="301" width="70" height="20" as="geometry" />
        </mxCell>
        <mxCell id="dHvcwWORWN_SWeiu5R4C-22" value="Mobile #" style="text;html=1;strokeColor=none;fillColor=none;align=left;verticalAlign=middle;whiteSpace=wrap;rounded=0;" vertex="1" parent="1">
          <mxGeometry x="198" y="320" width="92" height="20" as="geometry" />
        </mxCell>
        <mxCell id="dHvcwWORWN_SWeiu5R4C-24" value="Next" style="rounded=0;whiteSpace=wrap;html=1;align=center;" vertex="1" parent="1">
          <mxGeometry x="560" y="380" width="76" height="31" as="geometry" />
        </mxCell>
        <mxCell id="dHvcwWORWN_SWeiu5R4C-25" value="Personal Form Page" style="text;html=1;align=center;verticalAlign=middle;resizable=0;points=[];autosize=1;fontSize=22;" vertex="1" parent="1">
          <mxGeometry x="270" y="30" width="220" height="30" as="geometry" />
        </mxCell>
        <mxCell id="dHvcwWORWN_SWeiu5R4C-27" value="&lt;h1&gt;Container:&lt;/h1&gt;&lt;div&gt;&lt;ol&gt;&lt;li&gt;Toolbar&lt;/li&gt;&lt;li&gt;Tabs&lt;/li&gt;&lt;li&gt;Forms&lt;/li&gt;&lt;/ol&gt;&lt;h1&gt;HOC&lt;/h1&gt;&lt;/div&gt;&lt;div&gt;&lt;ol&gt;&lt;li&gt;Layout&lt;/li&gt;&lt;/ol&gt;&lt;h1&gt;Components:&lt;/h1&gt;&lt;/div&gt;&lt;div&gt;&lt;ol&gt;&lt;li&gt;Tab&lt;/li&gt;&lt;li&gt;Form&lt;/li&gt;&lt;ol&gt;&lt;li&gt;Personal Form&lt;/li&gt;&lt;li&gt;Education Form&lt;/li&gt;&lt;li&gt;Professional Form&lt;/li&gt;&lt;li&gt;Excise Form&lt;/li&gt;&lt;li&gt;Resident Form&lt;/li&gt;&lt;/ol&gt;&lt;li&gt;Preview&lt;/li&gt;&lt;li&gt;Next Button&lt;/li&gt;&lt;/ol&gt;&lt;/div&gt;" style="text;html=1;strokeColor=none;fillColor=none;spacing=5;spacingTop=-20;whiteSpace=wrap;overflow=hidden;rounded=0;fontSize=22;align=left;" vertex="1" parent="1">
          <mxGeometry x="20.5" y="510" width="819.5" height="700" as="geometry" />
        </mxCell>
      </root>
    </mxGraphModel>
  </diagram>
</mxfile>
